<?xml version="1.0" standalone="no"?>
<!DOCTYPE svg PUBLIC "-//W3C//DTD SVG 20010904//EN"
 "http://www.w3.org/TR/2001/REC-SVG-20010904/DTD/svg10.dtd">
<svg version="1.0" xmlns="http://www.w3.org/2000/svg"
 width="345.000000pt" height="99.000000pt" viewBox="0 0 345.000000 99.000000"
 preserveAspectRatio="xMidYMid meet">

<g transform="translate(0.000000,99.000000) scale(0.100000,-0.100000)"
fill="#000000" stroke="none">
<path d="M1688 793 c6 -2 18 -2 25 0 6 3 1 5 -13 5 -14 0 -19 -2 -12 -5z"/>
<path d="M1388 783 c7 -3 16 -2 19 1 4 3 -2 6 -13 5 -11 0 -14 -3 -6 -6z"/>
<path d="M1528 783 c7 -3 16 -2 19 1 4 3 -2 6 -13 5 -11 0 -14 -3 -6 -6z"/>
<path d="M1280 759 c0 -5 9 -9 20 -9 11 0 20 2 20 4 0 2 -9 6 -20 9 -11 3 -20
1 -20 -4z"/>
<path d="M1210 750 c-20 -6 -21 -8 -5 -8 11 0 31 4 45 8 20 6 21 8 5 8 -11 0
-31 -4 -45 -8z"/>
<path d="M1020 710 c12 -8 12 -10 1 -10 -8 0 -11 -3 -8 -6 4 -4 12 -2 19 3 7
6 22 13 33 16 11 2 2 5 -20 6 -29 0 -36 -2 -25 -9z"/>
<path d="M973 695 c0 -8 6 -15 12 -15 6 0 12 7 12 15 0 8 -6 15 -12 15 -6 0
-12 -7 -12 -15z"/>
<path d="M1428 693 c6 -2 18 -2 25 0 6 3 1 5 -13 5 -14 0 -19 -2 -12 -5z"/>
<path d="M870 680 c8 -5 22 -9 30 -9 10 0 8 3 -5 9 -27 12 -43 12 -25 0z"/>
<path d="M1225 665 c-213 -41 -397 -111 -536 -206 -31 -20 -63 -49 -72 -63
-19 -28 -22 -62 -7 -71 6 -3 10 -11 10 -17 0 -7 -5 -6 -14 1 -10 8 -16 9 -21
1 -3 -5 -18 -7 -32 -4 -20 6 -24 3 -21 -11 1 -10 9 -20 16 -23 8 -2 10 2 5 15
-6 15 -5 16 9 5 11 -9 18 -9 23 -3 9 16 46 7 62 -15 14 -17 14 -15 8 24 -6 35
-3 49 15 75 43 63 144 123 318 191 94 37 139 46 126 24 -4 -7 -3 -8 5 -4 6 4
9 11 6 15 -4 8 97 40 235 75 93 24 4 18 -135 -9z"/>
<path d="M808 649 c-10 -5 -18 -16 -18 -24 0 -7 -6 -16 -12 -18 -10 -4 -10 -6
0 -6 7 -1 16 7 19 17 4 9 14 22 22 29 19 15 12 16 -11 2z"/>
<path d="M855 645 c-25 -12 -26 -14 -5 -9 28 7 60 23 45 23 -5 0 -23 -6 -40
-14z"/>
<path d="M730 609 c-11 -6 -12 -9 -2 -9 7 0 10 -4 7 -10 -3 -5 1 -10 9 -10 9
0 16 6 16 14 0 20 -13 27 -30 15z"/>
<path d="M2017 570 c-8 -11 -17 -17 -20 -13 -4 3 -7 1 -7 -5 0 -20 17 -13 34
13 19 30 13 34 -7 5z"/>
<path d="M2864 575 c8 -8 18 -15 22 -15 3 0 1 7 -6 15 -7 8 -17 15 -22 15 -5
0 -3 -7 6 -15z"/>
<path d="M591 544 c-24 -18 -40 -34 -36 -34 5 0 -2 -11 -14 -24 -14 -15 -19
-26 -12 -31 10 -6 15 1 12 18 0 4 6 7 14 7 13 0 14 -4 5 -20 -6 -11 -7 -20 -3
-21 4 0 16 -2 25 -4 11 -2 15 2 11 12 -5 12 -7 12 -14 2 -5 -8 -7 0 -7 20 1
29 3 32 13 17 7 -9 16 -16 20 -16 5 0 -1 10 -13 23 l-22 24 27 13 c36 17 45
18 60 7 8 -6 23 -2 43 10 l31 20 -31 0 c-22 0 -29 -4 -26 -14 6 -15 -10 -18
-19 -3 -4 6 -11 7 -17 4 -7 -5 -9 -1 -5 9 8 21 10 22 -42 -19z"/>
<path d="M1791 570 c-9 -5 -10 -10 -2 -14 6 -4 11 -1 11 6 0 10 2 10 9 -1 5
-8 11 -9 15 -3 8 13 -17 22 -33 12z"/>
<path d="M1110 560 c8 -5 20 -10 25 -10 6 0 3 5 -5 10 -8 5 -19 10 -25 10 -5
0 -3 -5 5 -10z"/>
<path d="M1211 561 c-9 -6 -10 -11 -2 -15 6 -4 11 -4 11 1 0 4 5 1 10 -7 5 -8
10 -10 10 -5 0 20 -16 34 -29 26z"/>
<path d="M1686 548 c-2 -10 0 -18 5 -18 5 0 9 5 9 11 0 5 3 8 8 6 4 -3 12 1
19 8 9 10 7 13 -12 11 -14 0 -26 -9 -29 -18z"/>
<path d="M1900 559 c0 -5 5 -7 10 -4 6 3 10 8 10 11 0 2 -4 4 -10 4 -5 0 -10
-5 -10 -11z"/>
<path d="M3098 553 c7 -3 16 -2 19 1 4 3 -2 6 -13 5 -11 0 -14 -3 -6 -6z"/>
<path d="M621 506 c-8 -10 -9 -16 -1 -21 10 -6 14 1 11 19 -1 5 5 6 14 3 8 -4
15 -2 15 3 0 15 -26 12 -39 -4z"/>
<path d="M1580 499 c0 -5 5 -7 10 -4 6 3 10 8 10 11 0 2 -4 4 -10 4 -5 0 -10
-5 -10 -11z"/>
<path d="M3040 500 c-13 -8 -12 -10 3 -10 9 0 17 5 17 10 0 12 -1 12 -20 0z"/>
<path d="M495 490 c-3 -5 -1 -10 4 -10 6 0 11 5 11 10 0 6 -2 10 -4 10 -3 0
-8 -4 -11 -10z"/>
<path d="M466 466 c5 -14 4 -17 -5 -12 -9 6 -9 3 1 -13 11 -18 14 -18 21 -5 6
11 4 21 -7 33 -16 15 -17 15 -10 -3z"/>
<path d="M2730 471 c0 -6 4 -13 10 -16 6 -3 7 1 4 9 -7 18 -14 21 -14 7z"/>
<path d="M1080 446 c0 -19 47 -48 68 -43 12 3 10 5 -6 6 -12 0 -25 8 -28 16
-4 8 -10 12 -15 9 -5 -3 -6 2 -3 10 3 9 1 16 -5 16 -6 0 -11 -6 -11 -14z"/>
<path d="M1225 450 c3 -5 8 -10 11 -10 2 0 4 5 4 10 0 6 -5 10 -11 10 -5 0 -7
-4 -4 -10z"/>
<path d="M1435 447 c4 -10 2 -17 -4 -17 -6 0 -11 -4 -11 -9 0 -8 38 -7 45 1 1
2 -6 12 -17 23 -16 17 -18 17 -13 2z"/>
<path d="M2868 453 c6 -2 10 -9 7 -13 -3 -5 0 -12 6 -16 8 -4 9 -3 5 4 -4 7
-1 12 6 12 9 0 9 3 -2 10 -8 5 -19 9 -25 9 -5 0 -4 -3 3 -6z"/>
<path d="M1125 440 c-3 -6 1 -7 9 -4 18 7 21 14 7 14 -6 0 -13 -4 -16 -10z"/>
<path d="M550 401 c-7 -13 -7 -22 0 -26 5 -3 10 1 10 9 0 10 6 13 18 9 15 -6
15 -5 3 10 -17 21 -18 21 -31 -2z"/>
<path d="M1358 413 c6 -2 18 -2 25 0 6 3 1 5 -13 5 -14 0 -19 -2 -12 -5z"/>
<path d="M1730 416 c0 -2 7 -7 16 -10 8 -3 12 -2 9 4 -6 10 -25 14 -25 6z"/>
<path d="M2828 413 c6 -2 18 -2 25 0 6 3 1 5 -13 5 -14 0 -19 -2 -12 -5z"/>
<path d="M466 353 c-19 -40 -12 -54 33 -68 17 -5 22 -4 19 6 -3 8 -17 15 -31
17 -23 3 -40 22 -19 22 11 0 31 49 23 55 -4 2 -15 -12 -25 -32z"/>
<path d="M441 354 c0 -11 3 -14 6 -6 3 7 2 16 -1 19 -3 4 -6 -2 -5 -13z"/>
<path d="M504 335 c-17 -13 -17 -14 -2 -15 9 0 20 5 23 11 11 17 0 20 -21 4z"/>
<path d="M2290 307 c-52 -26 -61 -94 -17 -129 25 -20 78 -23 95 -6 22 22 13
28 -33 22 -40 -6 -45 -4 -56 18 -21 46 26 92 69 69 18 -10 32 -6 32 9 0 7 -45
30 -58 30 -4 0 -18 -6 -32 -13z"/>
<path d="M2453 310 c-49 -20 -59 -96 -17 -129 83 -65 176 46 98 117 -27 23
-45 26 -81 12z m73 -48 c16 -33 6 -61 -24 -69 -34 -8 -56 8 -60 43 -7 52 60
73 84 26z"/>
<path d="M2850 240 l0 -80 55 0 c42 0 55 3 55 15 0 11 -11 15 -40 15 -33 0
-40 3 -40 20 0 16 7 20 30 20 17 0 30 5 30 10 0 6 -13 10 -30 10 -23 0 -30 4
-30 20 0 17 7 20 40 20 29 0 40 4 40 15 0 12 -13 15 -55 15 l-55 0 0 -80z"/>
<path d="M3016 299 c-37 -29 -37 -89 0 -118 32 -25 61 -27 92 -5 42 29 21 87
-25 69 -17 -6 -17 -7 1 -20 22 -17 13 -35 -19 -35 -15 0 -31 10 -41 25 -15 23
-15 27 1 51 15 23 21 26 56 20 42 -7 52 6 20 24 -30 15 -56 12 -85 -11z"/>
<path d="M3170 246 c0 -41 3 -77 8 -79 12 -8 102 5 102 14 0 5 -18 9 -40 9
-33 0 -40 3 -40 20 0 16 7 20 31 20 38 0 35 24 -4 28 -44 5 -34 32 13 32 31 0
38 3 34 15 -4 11 -21 15 -55 15 l-49 0 0 -74z"/>
<path d="M959 300 c-26 -15 -41 -62 -30 -93 20 -51 74 -68 120 -38 25 16 3 30
-29 18 -26 -10 -33 -9 -52 11 -18 18 -20 26 -12 49 9 26 14 28 57 26 49 -1 60
9 28 27 -24 12 -61 13 -82 0z"/>
<path d="M1118 296 c-45 -34 -40 -100 10 -129 28 -17 37 -17 63 -7 35 15 49
37 49 78 0 56 -76 93 -122 58z m80 -28 c21 -21 15 -67 -12 -79 -42 -20 -74 9
-66 61 4 29 55 41 78 18z"/>
<path d="M1280 235 c0 -60 3 -75 15 -75 11 0 15 12 15 48 l1 47 23 -28 23 -29
21 29 c19 25 22 26 23 8 4 -51 7 -66 13 -73 11 -10 27 21 21 43 -2 11 -5 39
-5 63 0 50 -16 55 -45 12 -11 -16 -23 -30 -27 -30 -3 0 -18 14 -31 30 -39 46
-47 39 -47 -45z"/>
<path d="M1480 234 c0 -56 3 -75 13 -71 6 2 13 9 13 15 1 7 2 17 3 22 0 6 12
10 25 10 29 0 56 24 56 50 0 30 -28 50 -71 50 l-39 0 0 -76z m75 26 c0 -8 -10
-16 -22 -18 -18 -3 -23 2 -23 18 0 16 5 21 23 18 12 -2 22 -10 22 -18z"/>
<path d="M1620 257 c0 -68 19 -97 65 -97 46 0 65 29 65 97 0 40 -4 53 -15 53
-11 0 -15 -13 -15 -54 0 -60 -19 -88 -48 -69 -12 7 -18 27 -20 67 -2 41 -7 56
-17 56 -11 0 -15 -13 -15 -53z"/>
<path d="M1770 295 c0 -9 9 -15 25 -15 24 0 25 -3 25 -60 0 -48 3 -60 15 -60
13 0 15 10 11 56 -4 51 -3 56 20 64 43 17 26 30 -36 30 -47 0 -60 -3 -60 -15z"/>
<path d="M1911 235 l0 -75 55 0 c41 0 54 4 54 15 0 11 -11 15 -40 15 -51 0
-57 27 -7 32 17 2 32 8 32 13 0 6 -15 11 -32 13 -50 5 -44 32 7 32 29 0 40 4
40 15 0 11 -13 15 -54 15 l-55 0 0 -75z"/>
<path d="M2060 236 c0 -61 3 -76 15 -76 9 0 15 9 15 25 0 33 19 32 46 -2 24
-30 42 -27 25 5 -7 14 -7 28 2 51 17 46 1 65 -57 69 l-46 3 0 -75z m78 25 c-2
-9 -13 -17 -26 -19 -16 -3 -22 2 -22 16 0 11 6 22 13 25 20 7 38 -4 35 -22z"/>
<path d="M2600 234 l0 -75 47 3 c56 4 73 28 19 28 l-36 0 0 60 c0 47 -3 60
-15 60 -12 0 -15 -15 -15 -76z"/>
<path d="M2730 245 c0 -36 -1 -68 -2 -72 -2 -5 18 -9 45 -11 37 -2 47 0 47 12
0 12 -10 16 -35 16 l-35 0 0 60 c0 33 -4 60 -10 60 -6 0 -10 -28 -10 -65z"/>
<path d="M590 274 c0 -9 71 -41 75 -35 3 5 -7 12 -20 15 -14 4 -24 10 -21 14
2 4 -4 8 -15 8 -10 0 -19 -1 -19 -2z"/>
<path d="M531 254 c13 -7 32 -13 42 -14 10 0 31 -7 47 -15 42 -22 37 -11 -7
16 -21 12 -53 23 -72 24 -32 2 -33 2 -10 -11z"/>
<path d="M680 230 c-9 -6 -10 -10 -3 -10 6 0 15 5 18 10 8 12 4 12 -15 0z"/>
<path d="M703 213 c-7 -2 -13 -9 -13 -15 0 -7 5 -7 13 1 8 6 18 7 22 3 5 -4 5
-1 1 6 -4 6 -8 12 -9 11 -1 0 -8 -3 -14 -6z"/>
<path d="M792 168 c3 -7 17 -14 32 -16 17 -2 26 1 22 6 -3 6 -16 8 -28 4 -14
-3 -19 -2 -14 6 4 7 2 12 -4 12 -7 0 -10 -6 -8 -12z"/>
</g>
</svg>
